name rise30.6535peak61.5555fall82.9339.mot
datacolumns 19
datarows 27
range 1.07666200000000 1.11998900000000
endheader
time	ground_force1_vx	ground_force1_vy	ground_force1_vz	ground_force1_px	ground_force1_py	ground_force1_pz	ground_force2_vx	ground_force2_vy	ground_force2_vz	ground_force2_px	ground_force2_py	ground_force2_pz	ground_torque1_x	ground_torque1_y	ground_torque1_z	ground_torque2_x	ground_torque2_y	ground_torque2_z	
1.07666200000000	67.09696599999999	787.18572300000005	50.97848300000000	0.31857300000000	0.00000000000000	0.08805400000000	0.00000000000000	0.00000000000000	0.00000000000000	0.00000000000000	0.00000000000000	0.00000000000000	0.00000000000000	20.23010400000000	0.00000000000000	0.00000000000000	0.00000000000000	0.00000000000000	
1.07832900000000	66.52799600000000	789.58547899999996	51.12779300000000	0.31784700000000	0.00000000000000	0.08806000000000	0.00000000000000	0.00000000000000	0.00000000000000	0.00000000000000	0.00000000000000	0.00000000000000	0.00000000000000	20.30646400000000	0.00000000000000	0.00000000000000	0.00000000000000	0.00000000000000	
1.07999700000000	65.95432500000000	791.81467199999997	51.27762200000000	0.31713100000000	0.00000000000000	0.08806800000000	0.00000000000000	0.00000000000000	0.00000000000000	0.00000000000000	0.00000000000000	0.00000000000000	0.00000000000000	20.38462800000000	0.00000000000000	0.00000000000000	0.00000000000000	0.00000000000000	
1.08165700000000	65.37630799999999	793.87265300000001	51.42749600000000	0.31642400000000	0.00000000000000	0.08807600000000	0.00000000000000	0.00000000000000	0.00000000000000	0.00000000000000	0.00000000000000	0.00000000000000	0.00000000000000	20.46422500000000	0.00000000000000	0.00000000000000	0.00000000000000	0.00000000000000	
1.08332500000000	64.79425700000000	795.75899800000002	51.57688300000000	0.31572200000000	0.00000000000000	0.08808500000000	0.00000000000000	0.00000000000000	0.00000000000000	0.00000000000000	0.00000000000000	0.00000000000000	0.00000000000000	20.54484600000000	0.00000000000000	0.00000000000000	0.00000000000000	0.00000000000000	
1.08499200000000	64.20843900000000	797.47352100000001	51.72519100000000	0.31502600000000	0.00000000000000	0.08809500000000	0.00000000000000	0.00000000000000	0.00000000000000	0.00000000000000	0.00000000000000	0.00000000000000	0.00000000000000	20.62605000000000	0.00000000000000	0.00000000000000	0.00000000000000	0.00000000000000	
1.08665700000000	63.61908500000000	799.01627599999995	51.87178000000000	0.31433200000000	0.00000000000000	0.08810700000000	0.00000000000000	0.00000000000000	0.00000000000000	0.00000000000000	0.00000000000000	0.00000000000000	0.00000000000000	20.70737100000000	0.00000000000000	0.00000000000000	0.00000000000000	0.00000000000000	
1.08832200000000	63.02639000000000	800.38756899999998	52.01596700000000	0.31364000000000	0.00000000000000	0.08811900000000	0.00000000000000	0.00000000000000	0.00000000000000	0.00000000000000	0.00000000000000	0.00000000000000	0.00000000000000	20.78831900000000	0.00000000000000	0.00000000000000	0.00000000000000	0.00000000000000	
1.08999100000000	62.43051600000000	801.58795399999997	52.15703400000000	0.31294800000000	0.00000000000000	0.08813300000000	0.00000000000000	0.00000000000000	0.00000000000000	0.00000000000000	0.00000000000000	0.00000000000000	0.00000000000000	20.86838400000000	0.00000000000000	0.00000000000000	0.00000000000000	0.00000000000000	
1.09166200000000	61.83159700000000	802.61824700000000	52.29423300000000	0.31225300000000	0.00000000000000	0.08814700000000	0.00000000000000	0.00000000000000	0.00000000000000	0.00000000000000	0.00000000000000	0.00000000000000	0.00000000000000	20.94704200000000	0.00000000000000	0.00000000000000	0.00000000000000	0.00000000000000	
1.09332900000000	61.22973800000000	803.47951999999998	52.42679200000000	0.31155400000000	0.00000000000000	0.08816300000000	0.00000000000000	0.00000000000000	0.00000000000000	0.00000000000000	0.00000000000000	0.00000000000000	0.00000000000000	21.02375900000000	0.00000000000000	0.00000000000000	0.00000000000000	0.00000000000000	
1.09499100000000	60.62502700000000	804.17310799999996	52.55392800000000	0.31084900000000	0.00000000000000	0.08818000000000	0.00000000000000	0.00000000000000	0.00000000000000	0.00000000000000	0.00000000000000	0.00000000000000	0.00000000000000	21.09799500000000	0.00000000000000	0.00000000000000	0.00000000000000	0.00000000000000	
1.09665600000000	60.01752800000000	804.70060699999999	52.67484800000000	0.31013600000000	0.00000000000000	0.08819800000000	0.00000000000000	0.00000000000000	0.00000000000000	0.00000000000000	0.00000000000000	0.00000000000000	0.00000000000000	21.16920900000000	0.00000000000000	0.00000000000000	0.00000000000000	0.00000000000000	
1.09832500000000	59.40729300000000	805.06387800000005	52.78875600000000	0.30941500000000	0.00000000000000	0.08821700000000	0.00000000000000	0.00000000000000	0.00000000000000	0.00000000000000	0.00000000000000	0.00000000000000	0.00000000000000	21.23686300000000	0.00000000000000	0.00000000000000	0.00000000000000	0.00000000000000	
1.09999100000000	58.79435900000000	805.26503900000000	52.89486500000000	0.30868200000000	0.00000000000000	0.08823700000000	0.00000000000000	0.00000000000000	0.00000000000000	0.00000000000000	0.00000000000000	0.00000000000000	0.00000000000000	21.30042400000000	0.00000000000000	0.00000000000000	0.00000000000000	0.00000000000000	
1.10166000000000	58.17875800000000	805.30646700000000	52.99239800000000	0.30793600000000	0.00000000000000	0.08825900000000	0.00000000000000	0.00000000000000	0.00000000000000	0.00000000000000	0.00000000000000	0.00000000000000	0.00000000000000	21.35937300000000	0.00000000000000	0.00000000000000	0.00000000000000	0.00000000000000	
1.10332700000000	57.56051300000000	805.19079399999998	53.08059800000000	0.30717700000000	0.00000000000000	0.08828100000000	0.00000000000000	0.00000000000000	0.00000000000000	0.00000000000000	0.00000000000000	0.00000000000000	0.00000000000000	21.41320300000000	0.00000000000000	0.00000000000000	0.00000000000000	0.00000000000000	
1.10498900000000	56.93964600000000	804.92089999999996	53.15873100000000	0.30640100000000	0.00000000000000	0.08830500000000	0.00000000000000	0.00000000000000	0.00000000000000	0.00000000000000	0.00000000000000	0.00000000000000	0.00000000000000	21.46142900000000	0.00000000000000	0.00000000000000	0.00000000000000	0.00000000000000	
1.10665700000000	56.31618000000000	804.49991199999999	53.22609500000000	0.30560800000000	0.00000000000000	0.08833000000000	0.00000000000000	0.00000000000000	0.00000000000000	0.00000000000000	0.00000000000000	0.00000000000000	0.00000000000000	21.50358600000000	0.00000000000000	0.00000000000000	0.00000000000000	0.00000000000000	
1.10833000000000	55.69014100000000	803.93119300000001	53.28202300000000	0.30479700000000	0.00000000000000	0.08835600000000	0.00000000000000	0.00000000000000	0.00000000000000	0.00000000000000	0.00000000000000	0.00000000000000	0.00000000000000	21.53923700000000	0.00000000000000	0.00000000000000	0.00000000000000	0.00000000000000	
1.10998900000000	55.06156100000000	803.21833600000002	53.32588800000000	0.30396500000000	0.00000000000000	0.08838400000000	0.00000000000000	0.00000000000000	0.00000000000000	0.00000000000000	0.00000000000000	0.00000000000000	0.00000000000000	21.56797200000000	0.00000000000000	0.00000000000000	0.00000000000000	0.00000000000000	
1.11165500000000	54.43048200000000	802.36515899999995	53.35711100000000	0.30311200000000	0.00000000000000	0.08841200000000	0.00000000000000	0.00000000000000	0.00000000000000	0.00000000000000	0.00000000000000	0.00000000000000	0.00000000000000	21.58941500000000	0.00000000000000	0.00000000000000	0.00000000000000	0.00000000000000	
1.11332100000000	53.79695500000000	801.37568799999997	53.37515900000000	0.30223700000000	0.00000000000000	0.08844200000000	0.00000000000000	0.00000000000000	0.00000000000000	0.00000000000000	0.00000000000000	0.00000000000000	0.00000000000000	21.60322300000000	0.00000000000000	0.00000000000000	0.00000000000000	0.00000000000000	
1.11499200000000	53.16104600000000	800.25415799999996	53.37955400000000	0.30133800000000	0.00000000000000	0.08847200000000	0.00000000000000	0.00000000000000	0.00000000000000	0.00000000000000	0.00000000000000	0.00000000000000	0.00000000000000	21.60909100000000	0.00000000000000	0.00000000000000	0.00000000000000	0.00000000000000	
1.11665800000000	52.52283500000000	799.00499300000001	53.36987600000000	0.30041400000000	0.00000000000000	0.08850400000000	0.00000000000000	0.00000000000000	0.00000000000000	0.00000000000000	0.00000000000000	0.00000000000000	0.00000000000000	21.60675200000000	0.00000000000000	0.00000000000000	0.00000000000000	0.00000000000000	
1.11833000000000	51.88241900000000	797.63279899999998	53.34576100000000	0.29946600000000	0.00000000000000	0.08853700000000	0.00000000000000	0.00000000000000	0.00000000000000	0.00000000000000	0.00000000000000	0.00000000000000	0.00000000000000	21.59598200000000	0.00000000000000	0.00000000000000	0.00000000000000	0.00000000000000	
1.11998900000000	51.23991400000000	796.14235099999996	53.30690900000000	0.29849200000000	0.00000000000000	0.08857100000000	0.00000000000000	0.00000000000000	0.00000000000000	0.00000000000000	0.00000000000000	0.00000000000000	0.00000000000000	21.57659700000000	0.00000000000000	0.00000000000000	0.00000000000000	0.00000000000000	
